<mxfile host="www.draw.io" modified="2020-01-08T07:42:51.891Z" agent="Mozilla/5.0 (Windows NT 10.0; WOW64) AppleWebKit/537.36 (KHTML, like Gecko) Chrome/77.0.3865.90 Safari/537.36" etag="tZA5xAykLoQdxTcP0qLh" version="12.4.9" type="github">
  <diagram id="5FtXfE8RjN9_6a2D83A7" name="Page-1">
    <mxGraphModel dx="1185" dy="694" grid="1" gridSize="10" guides="1" tooltips="1" connect="1" arrows="1" fold="1" page="1" pageScale="1" pageWidth="1654" pageHeight="2336" math="0" shadow="0">
      <root>
        <mxCell id="0"/>
        <mxCell id="1" parent="0"/>
        <mxCell id="QCZ1JTYg6e06TpU6bpv8-9" value="" style="rounded=0;whiteSpace=wrap;html=1;" vertex="1" parent="1">
          <mxGeometry x="710" y="200" width="500" height="320" as="geometry"/>
        </mxCell>
        <mxCell id="QCZ1JTYg6e06TpU6bpv8-4" value="" style="rounded=0;whiteSpace=wrap;html=1;" vertex="1" parent="1">
          <mxGeometry x="140" y="200" width="420" height="320" as="geometry"/>
        </mxCell>
        <mxCell id="QCZ1JTYg6e06TpU6bpv8-1" value="Actor" style="shape=umlActor;verticalLabelPosition=bottom;labelBackgroundColor=#ffffff;verticalAlign=top;html=1;outlineConnect=0;" vertex="1" parent="1">
          <mxGeometry x="80" y="70" width="30" height="60" as="geometry"/>
        </mxCell>
        <mxCell id="QCZ1JTYg6e06TpU6bpv8-5" value="规则录入" style="rounded=1;whiteSpace=wrap;html=1;" vertex="1" parent="1">
          <mxGeometry x="180" y="240" width="120" height="60" as="geometry"/>
        </mxCell>
        <mxCell id="QCZ1JTYg6e06TpU6bpv8-11" style="edgeStyle=orthogonalEdgeStyle;rounded=0;orthogonalLoop=1;jettySize=auto;html=1;exitX=1;exitY=0.5;exitDx=0;exitDy=0;" edge="1" parent="1" source="QCZ1JTYg6e06TpU6bpv8-6" target="QCZ1JTYg6e06TpU6bpv8-10">
          <mxGeometry relative="1" as="geometry"/>
        </mxCell>
        <mxCell id="QCZ1JTYg6e06TpU6bpv8-6" value="规则下发" style="rounded=1;whiteSpace=wrap;html=1;" vertex="1" parent="1">
          <mxGeometry x="390" y="240" width="120" height="60" as="geometry"/>
        </mxCell>
        <mxCell id="QCZ1JTYg6e06TpU6bpv8-7" value="告警配置" style="rounded=1;whiteSpace=wrap;html=1;" vertex="1" parent="1">
          <mxGeometry x="180" y="340" width="120" height="60" as="geometry"/>
        </mxCell>
        <mxCell id="QCZ1JTYg6e06TpU6bpv8-8" value="缓存配置" style="rounded=1;whiteSpace=wrap;html=1;" vertex="1" parent="1">
          <mxGeometry x="390" y="340" width="120" height="60" as="geometry"/>
        </mxCell>
        <mxCell id="QCZ1JTYg6e06TpU6bpv8-10" value="规则备份" style="rounded=1;whiteSpace=wrap;html=1;" vertex="1" parent="1">
          <mxGeometry x="750" y="240" width="120" height="60" as="geometry"/>
        </mxCell>
        <mxCell id="QCZ1JTYg6e06TpU6bpv8-19" style="edgeStyle=orthogonalEdgeStyle;rounded=0;orthogonalLoop=1;jettySize=auto;html=1;exitX=0.5;exitY=1;exitDx=0;exitDy=0;entryX=0.343;entryY=-0.011;entryDx=0;entryDy=0;entryPerimeter=0;" edge="1" parent="1" source="QCZ1JTYg6e06TpU6bpv8-12" target="QCZ1JTYg6e06TpU6bpv8-13">
          <mxGeometry relative="1" as="geometry"/>
        </mxCell>
        <mxCell id="QCZ1JTYg6e06TpU6bpv8-12" value="api Unit" style="rounded=1;whiteSpace=wrap;html=1;" vertex="1" parent="1">
          <mxGeometry x="390" y="430" width="120" height="60" as="geometry"/>
        </mxCell>
        <mxCell id="QCZ1JTYg6e06TpU6bpv8-13" value="" style="rounded=0;whiteSpace=wrap;html=1;" vertex="1" parent="1">
          <mxGeometry x="430" y="650" width="530" height="220" as="geometry"/>
        </mxCell>
        <mxCell id="QCZ1JTYg6e06TpU6bpv8-14" value="api 调用实现" style="rounded=1;whiteSpace=wrap;html=1;" vertex="1" parent="1">
          <mxGeometry x="460" y="680" width="120" height="60" as="geometry"/>
        </mxCell>
        <mxCell id="QCZ1JTYg6e06TpU6bpv8-15" value="异常解决方案" style="rounded=1;whiteSpace=wrap;html=1;" vertex="1" parent="1">
          <mxGeometry x="620" y="680" width="120" height="60" as="geometry"/>
        </mxCell>
        <mxCell id="QCZ1JTYg6e06TpU6bpv8-16" value="异常记录上传" style="rounded=1;whiteSpace=wrap;html=1;" vertex="1" parent="1">
          <mxGeometry x="766.67" y="680" width="120" height="60" as="geometry"/>
        </mxCell>
        <mxCell id="QCZ1JTYg6e06TpU6bpv8-17" value="调用报表" style="rounded=1;whiteSpace=wrap;html=1;" vertex="1" parent="1">
          <mxGeometry x="180" y="430" width="120" height="60" as="geometry"/>
        </mxCell>
        <mxCell id="QCZ1JTYg6e06TpU6bpv8-20" value="" style="verticalLabelPosition=bottom;html=1;verticalAlign=top;align=center;strokeColor=none;fillColor=#00BEF2;shape=mxgraph.azure.mobile_services;pointerEvents=1;" vertex="1" parent="1">
          <mxGeometry x="1400" y="280" width="32.5" height="50" as="geometry"/>
        </mxCell>
      </root>
    </mxGraphModel>
  </diagram>
</mxfile>
